<svg xmlns="http://www.w3.org/2000/svg" xmlns:xlink="http://www.w3.org/1999/xlink" version="1.1" x="0px" y="0px" viewBox="0 0 100 109.8475" xml:space="preserve"><g><path d="M92.424,0H7.576C3.399,0,0,3.399,0,7.576v54.545c0,4.177,3.399,7.576,7.576,7.576h28.788v4.545   c0,5.848-4.759,10.606-10.606,10.606h-6.061c-0.837,0-1.515,0.678-1.515,1.515c0,0.837,0.678,1.515,1.515,1.515h60.606   c0.837,0,1.515-0.678,1.515-1.515c0-0.837-0.678-1.515-1.515-1.515h-6.148c-5.848,0-10.606-4.759-10.606-10.606v-4.545h28.875   c4.177,0,7.576-3.399,7.576-7.576V7.576C100,3.399,96.601,0,92.424,0z M65.592,84.848H34.32c3.092-2.502,5.074-6.327,5.074-10.606   v-4.545h21.125v4.545C60.519,78.521,62.5,82.346,65.592,84.848z M96.969,62.121c0,2.507-2.039,4.545-4.545,4.545H7.576   c-2.507,0-4.545-2.039-4.545-4.545V7.576c0-2.507,2.039-4.545,4.545-4.545h84.848c2.507,0,4.545,2.039,4.545,4.545V62.121z"/><path d="M92.424,6.061H7.576c-0.837,0-1.515,0.678-1.515,1.515v54.545c0,0.837,0.678,1.515,1.515,1.515h84.848   c0.837,0,1.515-0.678,1.515-1.515V7.576C93.939,6.738,93.261,6.061,92.424,6.061z M90.909,60.606H9.091V9.091h81.818V60.606z"/></g></svg>