<?xml version="1.0" encoding="utf-8"?>
<!-- Generator: Adobe Illustrator 19.0.1, SVG Export Plug-In . SVG Version: 6.00 Build 0)  -->
<svg version="1.1" id="Calque_1" xmlns="http://www.w3.org/2000/svg" xmlns:xlink="http://www.w3.org/1999/xlink" x="0px" y="0px"
	 viewBox="0 0 22.7 40" style="enable-background:new 0 0 22.7 40;" xml:space="preserve">
<style type="text/css">
	.st0{fill:#FFFFFF;}
</style>
<g>
	<g>
		<g>
			<g>
				<path class="st0" d="M11.3,20.1c5.5,0,10-4.5,10-10c0-5.5-4.5-10-10-10c-5.5,0-10,4.5-10,10C1.3,15.6,5.8,20.1,11.3,20.1
					L11.3,20.1z M11.3,7.8c1.2,0,2.2,1,2.2,2.2c0,1.2-1,2.2-2.2,2.2c-1.2,0-2.2-1-2.2-2.2C9.1,8.8,10.1,7.8,11.3,7.8L11.3,7.8z"/>
				<path class="st0" d="M22.6,33.1c-0.1-0.7-0.2-4.5-5.6-6.2c-5.2-1.7-13.6-4.2-13.6-4.2s-1.4-0.4-1.6-1.5c-0.2-1.2,1.4-2,1.6-2.2
					c0,0,0.2-0.1,0.2-0.1l-0.1-0.1c0,0-0.2,0.1-0.2,0.1c-0.4,0.2-3.7,2-3.4,6.2c0.1,0.7,0.2,4.5,5.6,6.2c5.2,1.7,13.6,4.2,13.6,4.2
					s1.4,0.4,1.6,1.5c0.4,1.4-1.6,2.5-2,2.7c0,0-0.4,0.2-0.4,0.2l0.1,0.2c0,0,0.4-0.2,0.4-0.2C19.5,39.6,23,37.8,22.6,33.1
					L22.6,33.1z"/>
			</g>
		</g>
	</g>
</g>
</svg>
