<?xml version="1.0" encoding="utf-8"?>
<!-- Generator: Adobe Illustrator 17.0.0, SVG Export Plug-In . SVG Version: 6.00 Build 0)  -->
<!DOCTYPE svg PUBLIC "-//W3C//DTD SVG 1.1//EN" "http://www.w3.org/Graphics/SVG/1.1/DTD/svg11.dtd">
<svg version="1.1" id="Mode_Isolation" xmlns="http://www.w3.org/2000/svg" xmlns:xlink="http://www.w3.org/1999/xlink" x="0px"
   y="0px" width="50.246px" height="40.834px" viewBox="0 0 50.246 40.834" enable-background="new 0 0 50.246 40.834"
   xml:space="preserve">
<path d="M34.788,0c-5.694,0-10.309,4.616-10.309,10.309c0,0.808,0.091,1.594,0.267,2.349
  C16.178,12.228,8.582,8.124,3.498,1.887C2.611,3.41,2.102,5.18,2.102,7.07c0,3.576,1.82,6.731,4.586,8.58
  c-1.689-0.054-3.279-0.517-4.669-1.29c-0.001,0.044-0.001,0.087-0.001,0.13c0,4.995,3.554,9.161,8.269,10.108
  c-0.865,0.236-1.775,0.362-2.715,0.362c-0.665,0-1.311-0.065-1.94-0.185c1.312,4.095,5.119,7.076,9.63,7.159
  c-3.528,2.765-7.973,4.413-12.803,4.413c-0.832,0-1.652-0.049-2.459-0.144c4.562,2.925,9.981,4.631,15.802,4.631
  c18.961,0,29.33-15.708,29.33-29.33c0-0.447-0.01-0.892-0.03-1.334c2.015-1.453,3.763-3.269,5.145-5.336
  c-1.85,0.82-3.835,1.374-5.921,1.623c2.129-1.276,3.763-3.296,4.533-5.703c-1.992,1.181-4.198,2.039-6.547,2.502
  C40.431,1.252,37.752,0,34.788,0"/>
</svg>