<svg xmlns="http://www.w3.org/2000/svg" xmlns:xlink="http://www.w3.org/1999/xlink"><symbol viewBox="0 0 100 109.8475" id="desktop"><path d="M92.424 0H7.576C3.4 0 0 3.4 0 7.576V62.12c0 4.178 3.4 7.577 7.576 7.577h28.788v4.545c0 5.848-4.76 10.606-10.606 10.606h-6.06c-.838 0-1.516.678-1.516 1.515 0 .837.678 1.515 1.515 1.515h60.606c.837 0 1.515-.678 1.515-1.515 0-.837-.678-1.515-1.515-1.515h-6.148c-5.848 0-10.606-4.76-10.606-10.606v-4.545h28.874c4.177 0 7.576-3.4 7.576-7.576V7.577C100 3.4 96.6 0 92.424 0zM65.592 84.848H34.32c3.092-2.502 5.074-6.327 5.074-10.606v-4.545H60.52v4.545c0 4.28 1.98 8.104 5.072 10.606zM96.97 62.12c0 2.508-2.04 4.546-4.546 4.546H7.576c-2.507 0-4.545-2.04-4.545-4.545V7.577c0-2.507 2.04-4.545 4.546-4.545h84.848c2.507 0 4.545 2.04 4.545 4.546V62.12z"/><path d="M92.424 6.06H7.576c-.837 0-1.515.68-1.515 1.516V62.12c0 .838.68 1.516 1.516 1.516h84.848c.837 0 1.515-.678 1.515-1.515V7.577c0-.838-.68-1.515-1.516-1.515zM90.91 60.607H9.09V9.09h81.82v51.516z"/></symbol><symbol viewBox="0 0 5.385 10" id="facebook"><path d="M3.846 1.905h1.538V0H3.846C2.574 0 1.538 1.12 1.538 2.5v.962H0v1.91h1.538V10H3.46V5.373h1.924v-1.91H3.462v-.98c0-.33.203-.578.384-.578z"/></symbol><symbol viewBox="0 0 50.246 40.834" id="twitter"><path d="M34.788 0c-5.694 0-10.31 4.616-10.31 10.31 0 .807.092 1.593.268 2.348-8.568-.43-16.164-4.534-21.248-10.77C2.61 3.41 2.102 5.18 2.102 7.07c0 3.576 1.82 6.73 4.586 8.58-1.69-.054-3.28-.517-4.67-1.29v.13c0 4.995 3.554 9.16 8.27 10.108-.866.236-1.776.362-2.716.362-.665 0-1.31-.065-1.94-.185 1.312 4.095 5.12 7.076 9.63 7.16-3.528 2.764-7.973 4.412-12.803 4.412-.833 0-1.653-.05-2.46-.144 4.562 2.925 9.98 4.63 15.802 4.63 18.96 0 29.33-15.707 29.33-29.33 0-.446-.01-.89-.03-1.333 2.015-1.453 3.763-3.27 5.145-5.336-1.85.82-3.835 1.374-5.92 1.623C46.454 5.18 48.088 3.16 48.858.754c-1.993 1.18-4.2 2.04-6.548 2.502C40.432 1.252 37.752 0 34.788 0"/></symbol></svg>