<svg xmlns="http://www.w3.org/2000/svg" xmlns:xlink="http://www.w3.org/1999/xlink"><symbol viewBox="0 0 100 109.8475" id="desktop"><path d="M92.424 0H7.576C3.4 0 0 3.4 0 7.576V62.12c0 4.178 3.4 7.577 7.576 7.577h28.788v4.545c0 5.848-4.76 10.606-10.606 10.606h-6.06c-.838 0-1.516.678-1.516 1.515 0 .837.678 1.515 1.515 1.515h60.606c.837 0 1.515-.678 1.515-1.515 0-.837-.678-1.515-1.515-1.515h-6.148c-5.848 0-10.606-4.76-10.606-10.606v-4.545h28.874c4.177 0 7.576-3.4 7.576-7.576V7.577C100 3.4 96.6 0 92.424 0zM65.592 84.848H34.32c3.092-2.502 5.074-6.327 5.074-10.606v-4.545H60.52v4.545c0 4.28 1.98 8.104 5.072 10.606zM96.97 62.12c0 2.508-2.04 4.546-4.546 4.546H7.576c-2.507 0-4.545-2.04-4.545-4.545V7.577c0-2.507 2.04-4.545 4.546-4.545h84.848c2.507 0 4.545 2.04 4.545 4.546V62.12z"/><path d="M92.424 6.06H7.576c-.837 0-1.515.68-1.515 1.516V62.12c0 .838.68 1.516 1.516 1.516h84.848c.837 0 1.515-.678 1.515-1.515V7.577c0-.838-.68-1.515-1.516-1.515zM90.91 60.607H9.09V9.09h81.82v51.516z"/></symbol></svg>